<?xml version="1.0" encoding="utf-8"?>
<!-- Generator: Adobe Illustrator 13.0.0, SVG Export Plug-In . SVG Version: 6.00 Build 14948)  -->
<!DOCTYPE svg PUBLIC "-//W3C//DTD SVG 1.1//EN" "http://www.w3.org/Graphics/SVG/1.1/DTD/svg11.dtd">
<svg version="1.1"
	 id="Layer_1" inkscape:output_extension="org.inkscape.output.svg.inkscape" inkscape:version="0.46" sodipodi:version="0.32" sodipodi:docname="Vancouver Canucks logo.svg" xmlns:dc="http://purl.org/dc/elements/1.1/" xmlns:cc="http://creativecommons.org/ns#" xmlns:rdf="http://www.w3.org/1999/02/22-rdf-syntax-ns#" xmlns:svg="http://www.w3.org/2000/svg" xmlns:sodipodi="http://sodipodi.sourceforge.net/DTD/sodipodi-0.dtd" xmlns:inkscape="http://www.inkscape.org/namespaces/inkscape"
	 xmlns="http://www.w3.org/2000/svg" xmlns:xlink="http://www.w3.org/1999/xlink" x="0px" y="0px" width="189px" height="185px"
	 viewBox="154.5 147.459 189 185" enable-background="new 154.5 147.459 189 185" xml:space="preserve">
<defs>
	
	
		<inkscape:perspective  id="perspective56" inkscape:persp3d-origin="250 : 160.63933 : 1" sodipodi:type="inkscape:persp3d" inkscape:vp_x="0 : 240.959 : 1" inkscape:vp_y="0 : 1000 : 0" inkscape:vp_z="500 : 240.959 : 1">
		</inkscape:perspective>
</defs>
<sodipodi:namedview  id="base" inkscape:pageopacity="0.0" inkscape:current-layer="Layer_1" inkscape:window-x="-8" inkscape:window-width="1440" inkscape:pageshadow="2" inkscape:window-height="850" inkscape:window-y="-8" bordercolor="#666666" pagecolor="#ffffff" showgrid="false" objecttolerance="10.0" inkscape:cx="250" guidetolerance="10.0" inkscape:zoom="0.95866932" inkscape:cy="240.959" gridtolerance="10.0" borderopacity="1.0">
	</sodipodi:namedview>
<g>
	<g id="g3">
		<path id="path5" fill="#FFFFFF" d="M213.913,255.363l0.006,0.033c0.763-0.76,16.266-16.212,32.515-19.535l12.674-9.793
			C228.824,227.842,214.69,253.901,213.913,255.363"/>
		<path id="path7" fill="#FFFFFF" d="M330.759,234.382c0-3.839-5.071-6.452-9.371-9.915c-16.997-1.902-21.642-5.996-21.642-8.61
			c0-1.026,0.866-1.265,1.689-1.265c3.858,0,8.947,2.731,11.842,5.829c-1.68-4.445-11.887-9.686-18.504-9.686
			c-1.248,0-3.083,0.393-3.083,2.386c0,4.19,6.295,9.501,22.495,10.799c8.672,2.063,17.7,6.905,15.969,13.162
			C330.469,236.449,330.759,235.562,330.759,234.382"/>
		<path id="path9" fill="#FFFFFF" d="M298.895,234.351l6.304,2.235c1.166-0.501,2.429-1.104,2.535-1.272
			c0.081-0.16,0.081-0.298-0.191-0.543c-0.185-0.166-3.008-1.236-4.761-1.871L298.895,234.351z"/>
		<path id="path11" fill="#FFFFFF" d="M304.217,232.355c1.669,0.676,4.004,1.598,4.192,1.645c0.264,0.045,0.7,0.062,0.971,0
			c0.203-0.062,1.583-0.756,2.601-1.268c-0.992-0.488-2.948-1.406-4.285-1.406C306.438,231.327,304.217,232.355,304.217,232.355"/>
		<path id="path13" fill="#FFFFFF" d="M310.448,234.531c-0.059,0.15-0.011,0.223,0.2,0.389c0.246,0.184,3.529,1.874,3.783,1.907
			c0.257,0.027,0.479,0.027,0.736-0.034c0.185-0.042,1.319-0.769,2.091-1.298l-4.368-2.335
			C311.759,233.719,310.557,234.382,310.448,234.531"/>
		<path id="path15" fill="#FFFFFF" d="M313.559,238.005c0.075-0.162,0.113-0.272,0.071-0.425c-0.213-0.24-3.462-1.914-3.806-1.975
			c-0.378-0.047-0.584-0.047-0.914,0.103c-0.275,0.123-1.927,1.045-2.516,1.375l5.071,2.312
			C312.423,238.804,313.457,238.124,313.559,238.005"/>
		<path id="path17" fill="#FFFFFF" d="M319.778,239.791c0.114,0.027,0.442-0.064,0.793-0.187c0.188-0.075,0.933-0.68,1.438-1.101
			l-3.911-2.492c-0.938,0.584-1.926,1.268-2.035,1.402c0,0.031,0.013,0.123,0.228,0.408L319.778,239.791z"/>
		<path id="path19" fill="#FFFFFF" d="M321.388,240.18c-0.114,0.228-0.125,0.319-0.065,0.392c0.128,0.12,2.159,1.469,3.534,2.392
			l1.589-1.589l-3.609-2.332C322.159,239.516,321.46,240.058,321.388,240.18"/>
		<path id="path21" fill="#FFFFFF" d="M319.162,240.844c0.065-0.116,0.03-0.303-0.116-0.438c-0.203-0.193-3.329-1.887-3.565-1.917
			c-0.266-0.061-0.745,0.015-1.001,0.088c-0.128,0.035-1.046,0.669-1.904,1.283l4.787,2.239
			C318.191,241.557,319.082,240.969,319.162,240.844"/>
		<path id="path23" fill="#FFFFFF" d="M319.991,241.48c-0.128,0.04-1.037,0.739-1.7,1.256l4.323,2.69l1.622-1.769
			c-1.316-0.912-3.23-2.208-3.391-2.283C320.676,241.329,320.21,241.404,319.991,241.48"/>
		<path id="path25" fill="#FFFFFF" d="M285.946,235.287c23.348,6.194,33.307,14.291,33.307,14.291l2.486-2.799
			c-1.169-0.855-9.772-6.806-26.613-12.325c5.019-1.996,11.089-4.336,12.733-4.336c3.726,0,11.368,4.851,19.59,10.231l1.874-2.117
			c-7.189-4.957-15.627-10.833-21.698-10.833C302.701,227.399,295.59,230.448,285.946,235.287"/>
		<path id="path27" fill="#A9AAAC" d="M264.188,285.729c27.224,0,49.445-10.424,49.445-10.424l11.898,26.602
			c0,0-25.448,19.509-67.508,19.509c-82.228,0-91.546-65.009-91.546-65.009s9.057-31.303,39.738-48.225l0.3,1.071l3.635,0.411
			c-11.594,5.361-29.83,18.069-40.673,47.045c0,0,9.981,61.789,88.546,61.789c38.436,0,63.842-17.602,63.842-17.602l-9.701-21.703
			c0,0-20.905,9.449-47.977,9.449c-37.459,0-48.063-22.389-50.271-33.249l-0.006-0.027c-0.34-1.726-0.494-3.172-0.494-4.172
			c0-6.984,1.357-10.577,1.357-10.577l-17.969,7.234l2.56,2.634c0,0-2.7,0.783-11.617,4.814l6.176-11.16l-4.683-0.365l17.335-13.338
			l-6.023-2.056l10.656-1.769l-2.135-5.301l5.966,3.107l4.587-14.33l4.17-4.186l2.214-2.208l-2.171-1.467
			c7.25-2.792,13.902-5.481,14.802-6.598c3.62-3.931,5.092-26.579,5.092-34.357c0,0,4.725-0.756,8.38-0.756
			c3.815,0,11.444,0,14.033,7.616c3.248,10.546,5.462,19.206,7.188,22.828c4.323,9.018,43.396,12.508,50.468,31.65
			c3.4,2.449,9.794,6.737,9.794,11.044c0,4.578-2.172,6.606-2.172,6.606l-11.839,13.335c0,0-7.454-7.902-33.315-15.198
			l-38.176,19.062c-7.377,1.985-30.478,0.595-30.478,0.595S223.63,285.729,264.188,285.729 M197.707,262.146l-3.224,12.316
			l7.309-3.434l3.868,13.75l8.211-0.109l0.178,8.986c0,0,13.565,8.464,34.381,10.667c27.248,2.904,57.228-8.851,57.228-8.851
			s-25.143,9.577-53.226,7.068c-21.256-1.902-33.809-10.604-33.809-10.604l-2.214-9.956l-6.668,0.863l-5.58-14.185l-5.806,1.726
			l2.792-9.671l-13.546-2.512l6.668-4.366l7.731-2.791l-1.286-2.798l9.91-3.293c-0.209,1.705-0.374,3.78-0.374,6.241
			c0,11.104,10.833,40.623,53.936,40.623c21.844,0,39.562-5.924,46.348-8.553l7.329,16.393
			c-6.861,4.049-29.233,15.663-59.842,15.663c-70.93,0-83.785-50.958-85.276-58.312c12.301-32.104,33.525-42.996,43.404-46.44
			l-3.27,10.218l-8.213-4.675l4.637,9.352l-13.32,2.569l8.175,3.231l-18.77,13.977l4.482-0.119l-3.34,6.703l-2.86,8.601
			L197.707,262.146z M202.996,190.885l19.784,13.678l-4.064,5.463l-10.048-2.478L202.996,190.885z M249.456,261.132l37.229-18.565
			c25.469,7.148,33.024,16.816,33.024,16.816l14.587-16.501c0.798-0.841,3.202-3.815,3.202-9.227
			c0-5.867-6.118-10.396-10.399-13.476c-7.252-19.054-47.418-24.564-50.385-31.197c-1.019-2.284-6.887-22.103-6.887-22.103
			c-3.491-10.257-13.824-10.257-17.71-10.257c-3.907,0-12.282,1.313-12.282,1.313c0,14.294-1.938,31.726-3.957,34.898
			c0,0-7.247,3.81-15.772,6.872l-20.313-13.7l5.339,18.446c-34.276,18.842-42.633,51.668-42.633,51.668s8.815,69.175,95.525,69.175
			c45.841,0,72.305-22.162,72.305-22.162l-14.766-33.027c0,0-22.554,11.726-51.374,11.726c-26.582,0-36.972-12.389-40.767-19.593
			C245.92,262.901,249.456,261.132,249.456,261.132"/>
		<path id="path29" fill="#B0B0B3" d="M229.797,223.773l7.413,4.321l-12.64-1.525L229.797,223.773z M231.013,221.646l-9.738,5.435
			l19.368,2.615L231.013,221.646z"/>
		<path id="path31" fill="#B0B0B3" d="M216.917,235.741l-13.782,2.144l15.224-10.316L216.917,235.741z M218.451,236.874
			l1.703-12.009L197.659,240L218.451,236.874z"/>
		<path id="path33" fill="#B0B0B3" d="M223.596,213.246l10.299-5.806l-8.874,12.024L223.596,213.246z M237.406,203.59l-16.26,9.095
			l4.229,10.107L237.406,203.59z"/>
		<polygon id="polygon35" fill="#1F427C" points="216.917,235.739 218.36,227.566 203.134,237.883 		"/>
		<polygon id="polygon37" fill="#1F427C" points="224.569,226.57 237.21,228.095 229.796,223.773 		"/>
		<polygon id="polygon39" fill="#1F427C" points="233.894,207.44 223.597,213.246 225.02,219.465 		"/>
		<path id="path41" fill="#1F427C" d="M310.536,283.266c-6.786,2.629-24.506,8.553-46.348,8.553
			c-43.101,0-53.936-29.518-53.936-40.622c0-2.461,0.165-4.536,0.372-6.241l-9.909,3.292l1.286,2.799l-7.732,2.791l-6.665,4.366
			l13.542,2.512l-2.792,9.671l5.806-1.726l5.58,14.185l6.668-0.863l2.214,9.957c0,0,12.552,8.701,33.809,10.604
			c28.083,2.509,53.226-7.068,53.226-7.068s-29.981,11.755-57.229,8.851c-20.815-2.203-34.381-10.663-34.381-10.663l-0.178-8.989
			l-8.211,0.108l-3.868-13.75l-7.31,3.434l3.225-12.316l-14.034-1.723l2.864-8.597l3.336-6.704l-4.482,0.116l18.77-13.973
			l-8.175-3.231l13.324-2.565l-4.637-9.355l8.21,4.675l3.27-10.215c-9.879,3.445-31.105,14.334-43.404,46.438
			c1.491,7.353,14.344,58.311,85.275,58.311c30.608,0,52.981-11.614,59.843-15.664L310.536,283.266z"/>
		<polygon id="polygon43" fill="#1F427C" points="218.717,210.026 222.781,204.561 202.994,190.885 208.668,207.548 		"/>
		<path id="path45" fill="#FFFFFF" d="M265.552,196.261c0,0-5.483-2.309-6.981-4.185c-1.479-1.872-3.217-20.531-3.217-20.531
			s-0.303,19.053-1.388,20.742c-1.111,1.697-6.565,4.835-6.565,4.835s6.049-1.978,9.028-2.141
			C258.607,194.844,265.552,196.261,265.552,196.261"/>
		<path id="path47" fill="#1F427C" d="M324.856,242.963c-1.376-0.922-3.409-2.273-3.535-2.388c-0.06-0.078-0.049-0.168,0.065-0.396
			c0.072-0.123,0.771-0.661,1.451-1.132l3.604,2.326L324.856,242.963z M322.613,245.427l-4.323-2.69
			c0.657-0.519,1.572-1.211,1.7-1.255c0.219-0.077,0.685-0.153,0.854-0.108c0.161,0.077,2.075,1.373,3.391,2.285L322.613,245.427z
			 M312.575,239.86c0.858-0.614,1.772-1.251,1.904-1.283c0.256-0.073,0.736-0.149,0.999-0.088c0.239,0.03,3.366,1.724,3.564,1.917
			c0.15,0.135,0.185,0.322,0.12,0.438c-0.081,0.123-0.972,0.713-1.802,1.255L312.575,239.86z M306.395,237.083
			c0.589-0.33,2.238-1.253,2.516-1.375c0.33-0.15,0.536-0.15,0.914-0.103c0.344,0.061,3.593,1.735,3.806,1.975
			c0.042,0.153,0.004,0.263-0.071,0.425c-0.102,0.12-1.136,0.8-2.092,1.391L306.395,237.083z M298.895,234.352l3.887-1.451
			c1.753,0.634,4.578,1.703,4.761,1.869c0.275,0.245,0.275,0.386,0.191,0.544c-0.108,0.169-1.369,0.771-2.535,1.274L298.895,234.352
			z M307.691,231.327c1.337,0,3.296,0.918,4.288,1.406c-1.013,0.514-2.397,1.206-2.601,1.268c-0.271,0.064-0.703,0.045-0.973,0
			c-0.188-0.047-2.521-0.966-4.189-1.645C304.217,232.355,306.436,231.327,307.691,231.327 M317.261,235.497
			c-0.771,0.53-1.908,1.256-2.093,1.298c-0.257,0.062-0.479,0.062-0.736,0.035c-0.257-0.035-3.534-1.727-3.78-1.908
			c-0.215-0.166-0.263-0.239-0.2-0.389c0.105-0.149,1.307-0.815,2.438-1.375L317.261,235.497z M322.01,238.504
			c-0.504,0.423-1.247,1.026-1.437,1.099c-0.354,0.125-0.681,0.215-0.795,0.187l-3.49-1.967c-0.212-0.286-0.222-0.377-0.222-0.408
			c0.105-0.135,1.091-0.818,2.032-1.402L322.01,238.504z M323.807,222.609c-7.071-19.138-46.146-22.632-50.468-31.649
			c-1.728-3.623-3.94-12.283-7.188-22.825c-2.589-7.615-10.217-7.615-14.033-7.615c-3.657,0-8.382,0.756-8.382,0.756
			c0,7.778-1.47,30.423-5.088,34.356c-0.9,1.115-7.555,3.807-14.802,6.599l2.168,1.462l-2.214,2.209
			c7.202-3.793,13.237-5.119,16.823-8.126c5.318-5.364,6.017-31.046,6.017-33.962c0,0,10.521-1.435,14.62,1.724
			c3.733,2.851,7.439,23.806,9.677,27.07c8.068,11.782,43.928,13.114,50.451,31.86c4.301,3.46,9.372,6.075,9.372,9.916
			c0,1.175-0.29,2.066-0.605,2.7c-0.382,0.775-0.826,1.148-0.826,1.148l-1.882,2.116c-8.218-5.376-15.86-10.227-19.59-10.227
			c-1.641,0-7.712,2.338-12.733,4.333c16.845,5.517,25.45,11.47,26.617,12.324l-2.485,2.8c0,0-9.958-8.097-33.306-14.291
			c-10.05,5.031-22.869,11.995-38.863,19.432c-5.089,1.444-25.797,0.57-25.797,0.57l25.146-19.425
			c-16.251,3.322-31.754,18.775-32.517,19.535c2.208,10.855,12.812,33.249,50.271,33.249c27.068,0,47.977-9.456,47.977-9.456
			l9.701,21.707c0,0-25.406,17.602-63.844,17.602c-78.563,0-88.546-61.789-88.546-61.789c10.843-28.974,29.081-41.682,40.677-47.043
			l-3.635-0.41l-0.301-1.072c-30.685,16.917-39.739,48.223-39.739,48.223s9.314,65.006,91.543,65.006
			c42.062,0,67.509-19.505,67.509-19.505l-11.897-26.602c0,0-22.221,10.424-49.445,10.424c-40.558,0-46.566-27.679-46.566-27.679
			s23.1,1.391,30.48-0.592l38.173-19.063c25.86,7.293,33.312,15.199,33.312,15.199l11.842-13.336c0,0,2.172-2.027,2.172-6.606
			C333.601,229.349,327.207,225.058,323.807,222.609"/>
		<path id="path49" fill="#152F55" d="M256.426,194.983c-2.977,0.162-9.024,2.14-9.024,2.14s5.451-3.138,6.562-4.834
			c1.085-1.691,1.389-20.744,1.389-20.744s1.738,18.661,3.217,20.532c1.498,1.878,6.983,4.187,6.983,4.187
			S258.606,194.842,256.426,194.983 M221.277,227.08l9.736-5.436l9.63,8.05L221.277,227.08z M237.406,203.59l-12.03,19.202
			l-4.232-10.108L237.406,203.59z M218.449,236.874l-20.792,3.128l22.495-15.14L218.449,236.874z M314.188,223.923
			c-16.202-1.3-22.496-6.614-22.496-10.801c0-1.993,1.834-2.388,3.083-2.388c6.617,0,16.824,5.239,18.504,9.689
			c-2.894-3.099-7.983-5.831-11.842-5.831c-0.823,0-1.685,0.24-1.685,1.265c0,2.615,4.641,6.709,21.637,8.611
			c-6.524-18.746-42.385-20.079-50.452-31.86c-2.239-3.265-5.942-24.218-9.678-27.069c-4.097-3.159-14.618-1.724-14.618-1.724
			c0,2.916-0.698,28.598-6.02,33.962c-3.585,3.007-9.618,4.336-16.821,8.126l-4.17,4.187l-4.587,14.333l-5.966-3.111l2.135,5.301
			l-10.656,1.769l6.022,2.059l-17.334,13.338l4.683,0.363l-6.177,11.16c8.917-4.033,11.617-4.817,11.617-4.817l-2.56-2.629
			l17.969-7.238c0,0-1.358,3.596-1.358,10.575c0,0.999,0.154,2.452,0.494,4.172c0.781-1.463,14.913-27.521,45.197-29.294
			l-37.822,29.219c0,0,20.708,0.88,25.797-0.57c15.993-7.435,28.813-14.402,38.86-19.432c9.641-4.838,16.751-7.889,21.679-7.889
			c6.071,0,14.513,5.879,21.702,10.834c0,0,0.444-0.374,0.827-1.148C331.887,230.828,322.858,225.98,314.188,223.923"/>
	</g>
	<path id="path2431" fill="#FFFFFF" d="M213.913,255.363l0.006,0.033c0.763-0.76,16.266-16.212,32.515-19.535l12.674-9.793
		C228.824,227.842,214.69,253.901,213.913,255.363"/>
	<path id="path2433" fill="#FFFFFF" d="M330.759,234.382c0-3.839-5.071-6.452-9.371-9.915c-16.997-1.902-21.642-5.996-21.642-8.61
		c0-1.026,0.866-1.265,1.689-1.265c3.858,0,8.947,2.731,11.842,5.829c-1.68-4.445-11.887-9.686-18.504-9.686
		c-1.248,0-3.083,0.393-3.083,2.386c0,4.19,6.295,9.501,22.495,10.799c8.672,2.063,17.7,6.905,15.969,13.162
		C330.469,236.449,330.759,235.562,330.759,234.382"/>
	<path id="path2435" fill="#FFFFFF" d="M298.895,234.351l6.304,2.235c1.166-0.501,2.429-1.104,2.535-1.272
		c0.081-0.16,0.081-0.298-0.191-0.543c-0.185-0.166-3.008-1.236-4.761-1.871L298.895,234.351z"/>
	<path id="path2437" fill="#FFFFFF" d="M304.217,232.355c1.669,0.676,4.004,1.598,4.192,1.645c0.264,0.045,0.7,0.062,0.971,0
		c0.203-0.062,1.583-0.756,2.601-1.268c-0.992-0.488-2.948-1.406-4.285-1.406C306.438,231.327,304.217,232.355,304.217,232.355"/>
	<path id="path2439" fill="#FFFFFF" d="M310.448,234.531c-0.059,0.15-0.011,0.223,0.2,0.389c0.246,0.184,3.529,1.874,3.783,1.907
		c0.257,0.027,0.479,0.027,0.736-0.034c0.185-0.042,1.319-0.769,2.091-1.298l-4.368-2.335
		C311.759,233.719,310.557,234.382,310.448,234.531"/>
	<path id="path2441" fill="#FFFFFF" d="M313.559,238.005c0.075-0.162,0.113-0.272,0.071-0.425c-0.213-0.24-3.462-1.914-3.806-1.975
		c-0.378-0.047-0.584-0.047-0.914,0.103c-0.275,0.123-1.927,1.045-2.516,1.375l5.071,2.312
		C312.423,238.804,313.457,238.124,313.559,238.005"/>
	<path id="path2443" fill="#FFFFFF" d="M319.778,239.791c0.114,0.027,0.442-0.064,0.793-0.187c0.188-0.075,0.933-0.68,1.438-1.101
		l-3.911-2.492c-0.938,0.584-1.926,1.268-2.035,1.402c0,0.031,0.013,0.123,0.228,0.408L319.778,239.791z"/>
	<path id="path2445" fill="#FFFFFF" d="M321.388,240.18c-0.114,0.228-0.125,0.319-0.065,0.392c0.128,0.12,2.159,1.469,3.534,2.392
		l1.589-1.589l-3.609-2.332C322.159,239.516,321.46,240.058,321.388,240.18"/>
	<path id="path2447" fill="#FFFFFF" d="M319.162,240.844c0.065-0.116,0.03-0.303-0.116-0.438c-0.203-0.193-3.329-1.887-3.565-1.917
		c-0.266-0.061-0.745,0.015-1.001,0.088c-0.128,0.035-1.046,0.669-1.904,1.283l4.787,2.239
		C318.191,241.557,319.082,240.969,319.162,240.844"/>
	<path id="path2449" fill="#FFFFFF" d="M319.991,241.48c-0.128,0.04-1.037,0.739-1.7,1.256l4.323,2.69l1.622-1.769
		c-1.316-0.912-3.23-2.208-3.391-2.283C320.676,241.329,320.21,241.404,319.991,241.48"/>
	<path id="path2451" fill="#FFFFFF" d="M285.946,235.287c23.348,6.194,33.307,14.291,33.307,14.291l2.486-2.799
		c-1.169-0.855-9.772-6.806-26.613-12.325c5.019-1.996,11.089-4.336,12.733-4.336c3.726,0,11.368,4.851,19.59,10.231l1.874-2.117
		c-7.189-4.957-15.627-10.833-21.698-10.833C302.701,227.399,295.59,230.448,285.946,235.287"/>
	<path id="path2453" fill="#989A9D" d="M264.188,285.729c27.224,0,49.445-10.424,49.445-10.424l11.898,26.602
		c0,0-25.448,19.509-67.508,19.509c-82.228,0-91.546-65.009-91.546-65.009s9.057-31.303,39.738-48.225l0.3,1.071l3.635,0.411
		c-11.594,5.361-29.83,18.069-40.673,47.045c0,0,9.981,61.789,88.546,61.789c38.436,0,63.842-17.602,63.842-17.602l-9.701-21.703
		c0,0-20.905,9.449-47.977,9.449c-37.459,0-48.063-22.389-50.271-33.249l-0.006-0.027c-0.34-1.726-0.494-3.172-0.494-4.172
		c0-6.984,1.357-10.577,1.357-10.577l-17.969,7.234l2.56,2.634c0,0-2.7,0.783-11.617,4.814l6.176-11.16l-4.683-0.365l17.335-13.338
		l-6.023-2.056l10.656-1.769l-2.135-5.301l5.966,3.107l4.587-14.33l4.17-4.186l2.214-2.208l-2.171-1.467
		c7.25-2.792,13.902-5.481,14.802-6.598c3.62-3.931,5.092-26.579,5.092-34.357c0,0,4.725-0.756,8.38-0.756
		c3.815,0,11.444,0,14.033,7.616c3.248,10.546,5.462,19.206,7.188,22.828c4.323,9.018,43.396,12.508,50.468,31.65
		c3.4,2.449,9.794,6.737,9.794,11.044c0,4.578-2.172,6.606-2.172,6.606l-11.839,13.335c0,0-7.454-7.902-33.315-15.198
		l-38.176,19.062c-7.377,1.985-30.478,0.595-30.478,0.595S223.63,285.729,264.188,285.729 M197.707,262.146l-3.224,12.316
		l7.309-3.434l3.868,13.75l8.211-0.109l0.178,8.986c0,0,13.565,8.464,34.381,10.667c27.248,2.904,57.228-8.851,57.228-8.851
		s-25.143,9.577-53.226,7.068c-21.256-1.902-33.809-10.604-33.809-10.604l-2.214-9.956l-6.668,0.863l-5.58-14.185l-5.806,1.726
		l2.792-9.671l-13.546-2.512l6.668-4.366l7.731-2.791l-1.286-2.798l9.91-3.293c-0.209,1.705-0.374,3.78-0.374,6.241
		c0,11.104,10.833,40.623,53.936,40.623c21.844,0,39.562-5.924,46.348-8.553l7.329,16.393c-6.861,4.049-29.233,15.663-59.842,15.663
		c-70.93,0-83.785-50.958-85.276-58.312c12.301-32.104,33.525-42.996,43.404-46.44l-3.27,10.218l-8.213-4.675l4.637,9.352
		l-13.32,2.569l8.175,3.231l-18.77,13.977l4.482-0.119l-3.34,6.703l-2.86,8.601L197.707,262.146z M202.996,190.885l19.784,13.678
		l-4.064,5.463l-10.048-2.478L202.996,190.885z M249.456,261.132l37.229-18.565c25.469,7.148,33.024,16.816,33.024,16.816
		l14.587-16.501c0.798-0.841,3.202-3.815,3.202-9.227c0-5.867-6.118-10.396-10.399-13.476
		c-7.252-19.054-47.418-24.564-50.385-31.197c-1.019-2.284-6.887-22.103-6.887-22.103c-3.491-10.257-13.824-10.257-17.71-10.257
		c-3.907,0-12.282,1.313-12.282,1.313c0,14.294-1.938,31.726-3.957,34.898c0,0-7.247,3.81-15.772,6.872l-20.313-13.7l5.339,18.446
		c-34.276,18.842-42.633,51.668-42.633,51.668s8.815,69.175,95.525,69.175c45.841,0,72.305-22.162,72.305-22.162l-14.766-33.027
		c0,0-22.554,11.726-51.374,11.726c-26.582,0-36.972-12.389-40.767-19.593C245.92,262.901,249.456,261.132,249.456,261.132"/>
	<path id="path2455" fill="#989A9D" d="M229.797,223.773l7.413,4.321l-12.64-1.525L229.797,223.773z M231.013,221.646l-9.738,5.435
		l19.368,2.615L231.013,221.646z"/>
	<path id="path2457" fill="#989A9D" d="M216.917,235.741l-13.782,2.144l15.224-10.316L216.917,235.741z M218.451,236.874
		l1.703-12.009L197.659,240L218.451,236.874z"/>
	<path id="path2459" fill="#989A9D" d="M223.596,213.246l10.299-5.806l-8.874,12.024L223.596,213.246z M237.406,203.59l-16.26,9.095
		l4.229,10.107L237.406,203.59z"/>
	<polygon id="polygon2461" fill="#0A6DB5" points="216.917,235.739 218.36,227.566 203.134,237.883 	"/>
	<polygon id="polygon2463" fill="#0A6DB5" points="224.569,226.57 237.21,228.095 229.796,223.773 	"/>
	<polygon id="polygon2465" fill="#0A6DB5" points="233.894,207.44 223.597,213.246 225.02,219.465 	"/>
	<path id="path2467" fill="#0A6DB5" d="M310.536,283.266c-6.786,2.629-24.506,8.553-46.348,8.553
		c-43.101,0-53.936-29.518-53.936-40.622c0-2.461,0.165-4.536,0.372-6.241l-9.909,3.292l1.286,2.799l-7.732,2.791l-6.665,4.366
		l13.542,2.512l-2.792,9.671l5.806-1.726l5.58,14.185l6.668-0.863l2.214,9.957c0,0,12.552,8.701,33.809,10.604
		c28.083,2.509,53.226-7.068,53.226-7.068s-29.981,11.755-57.229,8.851c-20.815-2.203-34.381-10.663-34.381-10.663l-0.178-8.989
		l-8.211,0.108l-3.868-13.75l-7.31,3.434l3.225-12.316l-14.034-1.723l2.864-8.597l3.336-6.704l-4.482,0.116l18.77-13.973
		l-8.175-3.231l13.324-2.565l-4.637-9.355l8.21,4.675l3.27-10.215c-9.879,3.445-31.105,14.334-43.404,46.438
		c1.491,7.353,14.344,58.311,85.275,58.311c30.608,0,52.981-11.614,59.843-15.664L310.536,283.266z"/>
	<polygon id="polygon2469" fill="#0A6DB5" points="218.717,210.026 222.781,204.561 202.994,190.885 208.668,207.548 	"/>
	<path id="path2471" fill="#0A6DB5" d="M265.552,196.261c0,0-5.483-2.309-6.981-4.185c-1.479-1.872-3.217-20.531-3.217-20.531
		s-0.303,19.053-1.388,20.742c-1.111,1.697-6.565,4.835-6.565,4.835s6.049-1.978,9.028-2.141
		C258.607,194.844,265.552,196.261,265.552,196.261"/>
	<path id="path2473" fill="#90192B" d="M324.856,242.963c-1.376-0.922-3.409-2.273-3.535-2.388c-0.06-0.078-0.049-0.168,0.065-0.396
		c0.072-0.123,0.771-0.661,1.451-1.132l3.604,2.326L324.856,242.963z M322.613,245.427l-4.323-2.69
		c0.657-0.519,1.572-1.211,1.7-1.255c0.219-0.077,0.685-0.153,0.854-0.108c0.161,0.077,2.075,1.373,3.391,2.285L322.613,245.427z
		 M312.575,239.86c0.858-0.614,1.772-1.251,1.904-1.283c0.256-0.073,0.736-0.149,0.999-0.088c0.239,0.03,3.366,1.724,3.564,1.917
		c0.15,0.135,0.185,0.322,0.12,0.438c-0.081,0.123-0.972,0.713-1.802,1.255L312.575,239.86z M306.395,237.083
		c0.589-0.33,2.238-1.253,2.516-1.375c0.33-0.15,0.536-0.15,0.914-0.103c0.344,0.061,3.593,1.735,3.806,1.975
		c0.042,0.153,0.004,0.263-0.071,0.425c-0.102,0.12-1.136,0.8-2.092,1.391L306.395,237.083z M298.895,234.352l3.887-1.451
		c1.753,0.634,4.578,1.703,4.761,1.869c0.275,0.245,0.275,0.386,0.191,0.544c-0.108,0.169-1.369,0.771-2.535,1.274L298.895,234.352z
		 M307.691,231.327c1.337,0,3.296,0.918,4.288,1.406c-1.013,0.514-2.397,1.206-2.601,1.268c-0.271,0.064-0.703,0.045-0.973,0
		c-0.188-0.047-2.521-0.966-4.189-1.645C304.217,232.355,306.436,231.327,307.691,231.327 M317.261,235.497
		c-0.771,0.53-1.908,1.256-2.093,1.298c-0.257,0.062-0.479,0.062-0.736,0.035c-0.257-0.035-3.534-1.727-3.78-1.908
		c-0.215-0.166-0.263-0.239-0.2-0.389c0.105-0.149,1.307-0.815,2.438-1.375L317.261,235.497z M322.01,238.504
		c-0.504,0.423-1.247,1.026-1.437,1.099c-0.354,0.125-0.681,0.215-0.795,0.187l-3.49-1.967c-0.212-0.286-0.222-0.377-0.222-0.408
		c0.105-0.135,1.091-0.818,2.032-1.402L322.01,238.504z M323.807,222.609c-7.071-19.138-46.146-22.632-50.468-31.649
		c-1.728-3.623-3.94-12.283-7.188-22.825c-2.589-7.615-10.217-7.615-14.033-7.615c-3.657,0-8.382,0.756-8.382,0.756
		c0,7.778-1.47,30.423-5.088,34.356c-0.9,1.115-7.555,3.807-14.802,6.599l2.168,1.462l-2.214,2.209
		c7.202-3.793,13.237-5.119,16.823-8.126c5.318-5.364,6.017-31.046,6.017-33.962c0,0,10.521-1.435,14.62,1.724
		c3.733,2.851,7.439,23.806,9.677,27.07c8.068,11.782,43.928,13.114,50.451,31.86c4.301,3.46,9.372,6.075,9.372,9.916
		c0,1.175-0.29,2.066-0.605,2.7c-0.382,0.775-0.826,1.148-0.826,1.148l-1.882,2.116c-8.218-5.376-15.86-10.227-19.59-10.227
		c-1.641,0-7.712,2.338-12.733,4.333c16.845,5.517,25.45,11.47,26.617,12.324l-2.485,2.8c0,0-9.958-8.097-33.306-14.291
		c-10.05,5.031-22.869,11.995-38.863,19.432c-5.089,1.444-25.797,0.57-25.797,0.57l25.146-19.425
		c-16.251,3.322-31.754,18.775-32.517,19.535c2.208,10.855,12.812,33.249,50.271,33.249c27.068,0,47.977-9.456,47.977-9.456
		l9.701,21.707c0,0-25.406,17.602-63.844,17.602c-78.563,0-88.546-61.789-88.546-61.789c10.843-28.974,29.081-41.682,40.677-47.043
		l-3.635-0.41l-0.301-1.072c-30.685,16.917-39.739,48.223-39.739,48.223s9.314,65.006,91.543,65.006
		c42.062,0,67.509-19.505,67.509-19.505l-11.897-26.602c0,0-22.221,10.424-49.445,10.424c-40.558,0-46.566-27.679-46.566-27.679
		s23.1,1.391,30.48-0.592l38.173-19.063c25.86,7.293,33.312,15.199,33.312,15.199l11.842-13.336c0,0,2.172-2.027,2.172-6.606
		C333.601,229.349,327.207,225.058,323.807,222.609"/>
	<path id="path2475" fill="#153056" d="M256.426,194.983c-2.977,0.162-9.024,2.14-9.024,2.14s5.451-3.138,6.562-4.834
		c1.085-1.691,1.389-20.744,1.389-20.744s1.738,18.661,3.217,20.532c1.498,1.878,6.983,4.187,6.983,4.187
		S258.606,194.842,256.426,194.983 M221.277,227.08l9.736-5.436l9.63,8.05L221.277,227.08z M237.406,203.59l-12.03,19.202
		l-4.232-10.108L237.406,203.59z M218.449,236.874l-20.792,3.128l22.495-15.14L218.449,236.874z M314.188,223.923
		c-16.202-1.3-22.496-6.614-22.496-10.801c0-1.993,1.834-2.388,3.083-2.388c6.617,0,16.824,5.239,18.504,9.689
		c-2.894-3.099-7.983-5.831-11.842-5.831c-0.823,0-1.685,0.24-1.685,1.265c0,2.615,4.641,6.709,21.637,8.611
		c-6.524-18.746-42.385-20.079-50.452-31.86c-2.239-3.265-5.942-24.218-9.678-27.069c-4.097-3.159-14.618-1.724-14.618-1.724
		c0,2.916-0.698,28.598-6.02,33.962c-3.585,3.007-9.618,4.336-16.821,8.126l-4.17,4.187l-4.587,14.333l-5.966-3.111l2.135,5.301
		l-10.656,1.769l6.022,2.059l-17.334,13.338l4.683,0.363l-6.177,11.16c8.917-4.033,11.617-4.817,11.617-4.817l-2.56-2.629
		l17.969-7.238c0,0-1.358,3.596-1.358,10.575c0,0.999,0.154,2.452,0.494,4.172c0.781-1.463,14.913-27.521,45.197-29.294
		l-37.822,29.219c0,0,20.708,0.88,25.797-0.57c15.993-7.435,28.813-14.402,38.86-19.432c9.641-4.838,16.751-7.889,21.679-7.889
		c6.071,0,14.513,5.879,21.702,10.834c0,0,0.444-0.374,0.827-1.148C331.887,230.828,322.858,225.98,314.188,223.923"/>
</g>
</svg>
